<?xml version="1.0" encoding="utf-8"?>
<!-- Generator: Adobe Illustrator 23.0.3, SVG Export Plug-In . SVG Version: 6.00 Build 0)  -->
<svg version="1.1" id="Layer_1" xmlns="http://www.w3.org/2000/svg" xmlns:xlink="http://www.w3.org/1999/xlink" x="0px" y="0px"
	width="153" height="52"
	 viewBox="0 0 153 52" style="enable-background:new 0 0 153 52;" xml:space="preserve">
<style type="text/css">
	.st0{fill-rule:evenodd;clip-rule:evenodd;fill:#3B3F45;}
	.st1{fill-rule:evenodd;clip-rule:evenodd;fill:url(#SVGID_1_);}
	.st2{fill-rule:evenodd;clip-rule:evenodd;fill:url(#SVGID_2_);}
</style>
<g>
	<path class="st0" d="M63.2,32.4c0,2.4-0.7,4.3-2,5.6C60,39.3,58.1,40,55.8,40c-1.2,0-2.3-0.2-3.2-0.6c-0.9-0.4-1.7-0.9-2.3-1.6
		c-0.6-0.7-1.1-1.5-1.4-2.4c-0.3-0.8-0.4-1.6-0.5-2.5c0-0.3,0.2-0.5,0.5-0.5h3.7c0.3,0,0.5,0.2,0.5,0.5c0.1,0.8,0.3,1.5,0.7,2
		c0.4,0.7,1.1,1,2,1c0.9,0,1.6-0.3,2.1-0.9c0.5-0.6,0.7-1.5,0.7-2.6V19.5c0-0.3,0.2-0.5,0.5-0.5h3.7c0.3,0,0.5,0.2,0.5,0.5V32.4"/>
	<path class="st0" d="M72.2,39.8c-1.2,0-2.3-0.2-3.3-0.6c-1-0.4-1.8-0.9-2.4-1.6c-0.7-0.7-1.2-1.5-1.5-2.4c-0.4-0.9-0.5-1.9-0.5-2.9
		c0-1,0.2-2,0.5-2.9c0.4-0.9,0.9-1.7,1.5-2.4c0.7-0.7,1.5-1.2,2.4-1.6c1-0.4,2-0.6,3.3-0.6c1.2,0,2.3,0.2,3.3,0.6
		c1,0.4,1.8,0.9,2.4,1.6c0.7,0.7,1.2,1.5,1.5,2.4c0.4,0.9,0.5,1.9,0.5,2.9c0,1-0.2,2-0.5,2.9c-0.4,0.9-0.9,1.7-1.5,2.4
		c-0.7,0.7-1.5,1.2-2.4,1.6C74.6,39.6,73.5,39.8,72.2,39.8z M72.2,36c0.5,0,1-0.1,1.4-0.3c0.4-0.2,0.8-0.4,1.1-0.8
		c0.3-0.3,0.5-0.7,0.7-1.1c0.2-0.4,0.2-0.9,0.2-1.4c0-0.5-0.1-1-0.2-1.4c-0.2-0.4-0.4-0.8-0.7-1.1c-0.3-0.3-0.6-0.6-1.1-0.8
		c-0.4-0.2-0.9-0.3-1.4-0.3c-0.5,0-1,0.1-1.4,0.3c-0.4,0.2-0.8,0.5-1,0.8c-0.3,0.3-0.5,0.7-0.7,1.1c-0.2,0.4-0.2,0.9-0.2,1.4
		c0,0.5,0.1,1,0.2,1.4c0.2,0.4,0.4,0.8,0.7,1.1c0.3,0.3,0.6,0.6,1,0.8C71.3,35.9,71.7,36,72.2,36z"/>
	<path class="st0" d="M85.9,39c0,0.3-0.2,0.5-0.5,0.5h-3.5c-0.3,0-0.5-0.2-0.5-0.5V19.5c0-0.3,0.2-0.5,0.5-0.5h3.5
		c0.3,0,0.5,0.2,0.5,0.5V27c0,0.1,0.1,0.1,0.2,0.1c0.1-0.2,0.3-0.4,0.5-0.6c0.3-0.3,0.6-0.5,1-0.8c0.4-0.2,0.8-0.4,1.2-0.5
		c0.4-0.1,0.9-0.2,1.4-0.2c1,0,1.9,0.2,2.8,0.6c0.8,0.4,1.6,0.9,2.2,1.5c0.6,0.7,1.1,1.4,1.4,2.3c0.3,0.9,0.5,1.9,0.5,2.9
		c0,1.1-0.2,2-0.5,2.9c-0.3,0.9-0.8,1.7-1.4,2.3c-0.6,0.7-1.3,1.2-2.2,1.5c-0.8,0.4-1.8,0.6-2.8,0.6c-0.5,0-0.9-0.1-1.4-0.2
		c-0.4-0.1-0.9-0.3-1.2-0.5c-0.4-0.2-0.7-0.4-1-0.7c-0.2-0.2-0.4-0.4-0.5-0.6c-0.1-0.1-0.2,0-0.2,0.1V39z M89.3,36
		c0.5,0,0.9-0.1,1.3-0.3c0.4-0.2,0.8-0.5,1-0.8c0.3-0.3,0.5-0.7,0.7-1.1c0.2-0.4,0.2-0.9,0.2-1.4c0-0.5-0.1-0.9-0.2-1.4
		c-0.2-0.4-0.4-0.8-0.7-1.1c-0.3-0.3-0.6-0.6-1-0.8c-0.4-0.2-0.9-0.3-1.3-0.3c-0.5,0-1,0.1-1.4,0.3c-0.4,0.2-0.8,0.5-1.1,0.8
		c-0.3,0.3-0.5,0.7-0.7,1.1c-0.2,0.4-0.2,0.9-0.2,1.4c0,0.5,0.1,1,0.2,1.4c0.2,0.4,0.4,0.8,0.7,1.1c0.3,0.3,0.6,0.6,1.1,0.8
		C88.3,35.9,88.8,36,89.3,36z"/>
	<path class="st0" d="M105.5,46.2c-1.1,0-2.1-0.1-3-0.4c-0.8-0.2-1.6-0.6-2.2-1.1c-0.6-0.5-1-1-1.4-1.7c-0.3-0.6-0.5-1.2-0.5-1.9
		c0-0.3,0.2-0.5,0.5-0.5h3.5c0.3,0,0.5,0.2,0.6,0.5c0.1,0.6,0.4,1,0.8,1.3c0.5,0.4,1.1,0.6,1.9,0.6c0.9,0,1.5-0.2,2-0.6
		c0.5-0.4,0.7-1.2,0.7-2.3v-2.5c0-0.1-0.1-0.1-0.2,0c-0.4,0.6-0.9,1.1-1.5,1.4c-0.8,0.4-1.7,0.6-2.8,0.6c-0.9,0-1.7-0.2-2.4-0.5
		c-0.7-0.3-1.2-0.7-1.6-1.2c-0.4-0.5-0.7-1.2-0.9-1.8c-0.1-0.7-0.2-1.5-0.2-2.5v-7.7c0-0.3,0.2-0.5,0.5-0.5h3.4
		c0.3,0,0.5,0.2,0.5,0.5v6.7c0,1,0.2,1.8,0.5,2.5c0.4,0.6,1,1,1.9,1c0.9,0,1.6-0.3,2.1-1c0.4-0.6,0.7-1.5,0.7-2.6v-6.6
		c0-0.3,0.2-0.5,0.5-0.5h3.5c0.3,0,0.5,0.2,0.5,0.5v13.9c0,1.1-0.2,2.1-0.5,2.9c-0.3,0.8-0.8,1.5-1.4,2c-0.6,0.5-1.4,0.9-2.2,1.2
		C107.7,46.1,106.7,46.2,105.5,46.2"/>
	<path class="st0" d="M115,19.5c0-0.3,0.2-0.5,0.5-0.5h3.5c0.3,0,0.5,0.2,0.5,0.5V39c0,0.3-0.2,0.5-0.5,0.5h-3.5
		c-0.3,0-0.5-0.2-0.5-0.5V19.5"/>
	<path class="st0" d="M128.6,39.8c-1.2,0-2.3-0.2-3.3-0.6c-1-0.4-1.8-0.9-2.4-1.6c-0.7-0.7-1.2-1.5-1.5-2.4
		c-0.4-0.9-0.5-1.9-0.5-2.9c0-1,0.2-2,0.5-2.9c0.4-0.9,0.9-1.7,1.5-2.4c0.7-0.7,1.5-1.2,2.4-1.6c1-0.4,2-0.6,3.3-0.6
		c1.2,0,2.3,0.2,3.3,0.6c1,0.4,1.8,0.9,2.4,1.6c0.7,0.7,1.2,1.5,1.5,2.4c0.4,0.9,0.5,1.9,0.5,2.9c0,1-0.2,2-0.5,2.9
		c-0.4,0.9-0.9,1.7-1.5,2.4c-0.7,0.7-1.5,1.2-2.4,1.6C131,39.6,129.9,39.8,128.6,39.8z M128.6,36c0.5,0,1-0.1,1.4-0.3
		c0.4-0.2,0.8-0.4,1.1-0.8c0.3-0.3,0.5-0.7,0.7-1.1c0.2-0.4,0.2-0.9,0.2-1.4c0-0.5-0.1-1-0.2-1.4c-0.2-0.4-0.4-0.8-0.7-1.1
		c-0.3-0.3-0.6-0.6-1.1-0.8c-0.4-0.2-0.9-0.3-1.4-0.3c-0.5,0-1,0.1-1.4,0.3c-0.4,0.2-0.8,0.5-1,0.8c-0.3,0.3-0.5,0.7-0.7,1.1
		c-0.2,0.4-0.2,0.9-0.2,1.4c0,0.5,0.1,1,0.2,1.4c0.2,0.4,0.4,0.8,0.7,1.1c0.3,0.3,0.6,0.6,1,0.8C127.7,35.9,128.1,36,128.6,36z"/>
	<path class="st0" d="M137.8,25.9c0-0.3,0.2-0.5,0.5-0.5h3.5c0.3,0,0.5,0.2,0.5,0.5V27c0,0.1,0.1,0.1,0.2,0c0.4-0.6,0.9-1.1,1.6-1.4
		c0.8-0.4,1.7-0.6,2.8-0.6c0.9,0,1.7,0.1,2.4,0.4c0.7,0.3,1.2,0.7,1.6,1.2c0.4,0.5,0.7,1.2,0.9,1.9c0.1,0.7,0.2,1.6,0.2,2.6V39
		c0,0.3-0.2,0.5-0.5,0.5H148c-0.3,0-0.5-0.2-0.5-0.5v-6.7c0-1-0.2-1.8-0.5-2.5c-0.4-0.6-1-1-1.9-1c-0.9,0-1.6,0.3-2,1
		c-0.4,0.6-0.7,1.5-0.7,2.6V39c0,0.3-0.2,0.5-0.5,0.5h-3.5c-0.3,0-0.5-0.2-0.5-0.5V25.9"/>
	<linearGradient id="SVGID_1_" gradientUnits="userSpaceOnUse" x1="1.0649" y1="32.4069" x2="37.5871" y2="32.4069">
		<stop  offset="0" style="stop-color:#0091FA"/>
		<stop  offset="1" style="stop-color:#54AEFB"/>
	</linearGradient>
	<path class="st1" d="M2,38.5c0,0-3.4-9.1,2.9-9.1c2.6,0,5.2,1.7,7.8,2.3c2.4,0.6,4.9,0.7,7.3,0.4c5.6-0.7,10.6-4,13.4-8.9
		c1.7-2.9,2.4-6.1,2.5-9.4C39.5,27.9,39,51,19.2,51C11.2,51,4.3,45.8,2,38.5z"/>
	<g>
		<linearGradient id="SVGID_2_" gradientUnits="userSpaceOnUse" x1="35.8443" y1="16.2589" x2="8.8878" y2="16.2589">
			<stop  offset="0" style="stop-color:#0091FA"/>
			<stop  offset="1" style="stop-color:#54AEFB"/>
		</linearGradient>
		<path class="st2" d="M22.6,31.5c4.5-1.3,8.4-4.2,10.8-8.3c1.7-2.9,2.4-6,2.5-9.3C33.9,6.2,26.2,0.1,18,1.1c-4,0.5-7.4,3.3-8.6,7.1
			c-1.4,4.1,0.1,8.6,2.4,12.1C14.7,24.6,18.8,28,22.6,31.5z"/>
	</g>
</g>
</svg>
